<?xml version="1.0" encoding="utf-8"?>
<!-- Generator: Adobe Illustrator 25.0.0, SVG Export Plug-In . SVG Version: 6.00 Build 0)  -->
<svg version="1.1" id="Capa_1" focusable="false" xmlns="http://www.w3.org/2000/svg" xmlns:xlink="http://www.w3.org/1999/xlink"
	 x="0px" y="0px" viewBox="0 0 512 512" style="enable-background:new 0 0 512 512;" xml:space="preserve">
<style type="text/css">
	.st0{fill:#FFFFFF;stroke:#FFFFFF;stroke-miterlimit:10;}
	.st1{fill:#FFFFFF;}
	.st2{fill:#005AF9;stroke:#FFFFFF;stroke-miterlimit:10;}
</style>
<circle class="st0" cx="254.5" cy="262.4" r="246"/>
<ellipse class="st1" cx="273.7" cy="269.3" rx="127.6" ry="163.4"/>
<path class="st2" d="M254.5,25.4c-130.9,0-237,106.2-237,237c0,130.9,106.1,237,237,237s237-106.1,237-237
	C491.5,131.6,385.4,25.4,254.5,25.4z M254.5,130.6c22.2,0,40.1,18,40.1,40.1s-18,40.1-40.1,40.1s-40.1-18-40.1-40.1
	S232.3,130.6,254.5,130.6z M308,373.3c0,6.3-5.1,11.5-11.5,11.5h-84.1c-6.3,0-11.5-5.1-11.5-11.5v-22.9c0-6.3,5.1-11.5,11.5-11.5
	h11.5v-61.2h-11.5c-6.3,0-11.5-5.1-11.5-11.5v-22.9c0-6.3,5.1-11.5,11.5-11.5h61.2c6.3,0,11.5,5.1,11.5,11.5v95.6h11.5
	c6.3,0,11.5,5.1,11.5,11.5V373.3z"/>
</svg>
