<?xml version="1.0" encoding="utf-8"?>
<!-- Generator: Adobe Illustrator 25.0.0, SVG Export Plug-In . SVG Version: 6.00 Build 0)  -->
<svg version="1.1" id="Capa_1" xmlns="http://www.w3.org/2000/svg" xmlns:xlink="http://www.w3.org/1999/xlink" x="0px" y="0px"
	 viewBox="0 0 195 42" style="enable-background:new 0 0 195 42;" xml:space="preserve">
<style type="text/css">
	.st0{fill-rule:evenodd;clip-rule:evenodd;}
</style>
<g id="Page-1">
	<g id="header-left" transform="translate(-70.000000, -71.000000)">
		<g id="Menu-principal" transform="translate(0.000000, 50.000000)">
			<g id="logo" transform="translate(70.000000, 21.000000)">
				<path id="imagotipo" class="st0" d="M48.8,16c-1.3,1.3-4,3.8-6.1,5.9c-5,4.5-5.1,7.5-4.8,8.8c-3.7-4.3-0.8-7.5,1.1-9.3
					c0.9-0.8,6.2-6,7.4-7.2c4.3-4.1,4.3-5.3,4.3-5.3C52.3,12.8,50.1,14.7,48.8,16L48.8,16z M48.7,22.3c-1.3,1.3-0.8,0.8-2.9,2.8
					c-3.4,3.3-3.5,5.6-3.5,5.6c-1.9-2.1-0.7-5.6,1.3-7.6c0.9-0.8,2.5-2.3,3.6-3.4c2.3-2.2,3-2.8,3.4-3.7
					C51.5,19.7,49.6,21.4,48.7,22.3L48.7,22.3z M34.5,19.7c1-0.9,7-6.9,8.2-8c3.8-3.6,3.6-4.8,3.6-4.8c1.6,3.8-0.6,5.9-1.9,7.2
					c-1.5,1.4-5.1,5-7.3,7.1c-5.3,5.2-3.4,9.4-3.4,9.4C30.2,28.2,31,23.1,34.5,19.7L34.5,19.7z M32.2,15.6c1-0.9,6.1-6,7.9-7.7
					c3.7-3.5,3.4-5,3.6-5.7c2.6,2.6,1,5.3-0.4,6.7c-1.2,1.2-6.9,7-9.3,9.1c-0.6,0.5-4.4,4.1-4.2,7.3C27.7,22.6,28.3,19.1,32.2,15.6
					L32.2,15.6z M27.5,14.2c0.9-0.9,7.4-7.2,8.5-8.4c2.7-2.7,2.2-4.9,2.2-4.9c3.1,2.4,2,4.9,0.3,6.6c-1.4,1.3-6.3,6.2-8.5,8.4
					c-3.6,3.4-3.1,6.3-2.5,8.7C24.9,21.9,23.7,18.1,27.5,14.2L27.5,14.2z M38.4,0.1c-10.8,0-19.6,8.7-19.6,19.5
					c0,9.9,7.5,18.1,17.2,19.3v-2.8c-3.2-0.5-6.5-1.6-8.6-4.5h22.1c-2.1,2.9-5.4,4-8.6,4.5v2.8C50.5,37.7,58,29.5,58,19.6
					C58,8.8,49.2,0.1,38.4,0.1L38.4,0.1z"/>
				<g id="texto" transform="translate(55.000000, 4.000000)">
					<path id="Fill-2" class="st0" d="M21.4,8c0.9,0,1.8,0,2.8-0.1c0.3,0,0.5-0.1,0.5-0.4c0-1-0.5-2.1-1.5-2.1
						C22.4,5.5,21.6,6.4,21.4,8L21.4,8z M26.9,12c-1.2,1.7-2.8,2.1-3.6,2.1c-2.6,0-4.1-2-4.1-4.4c0-1.5,0.6-2.8,1.5-3.6
						c0.9-0.9,2-1.5,3.1-1.5h0c1.8,0,3.2,1.6,3.2,3.2c0,0.4-0.1,0.6-0.6,0.7c-0.3,0-2.9,0.2-5,0.3c0.1,2.4,1.4,3.5,2.9,3.5
						c0.8,0,1.6-0.3,2.3-0.9L26.9,12L26.9,12z"/>
					<path id="Fill-3" class="st0" d="M35.8,11.9c-0.9,1.3-2.3,2.2-3.5,2.2c-2.7,0-4.3-2.1-4.3-4.3c0-1.5,0.7-2.9,2.1-3.9
						c1.2-0.9,2.5-1.2,3.3-1.2h0c0.8,0,1.4,0.2,1.8,0.5c0.3,0.2,0.4,0.4,0.4,0.7c0,0.5-0.5,1-0.8,1c-0.1,0-0.2-0.1-0.4-0.2
						c-0.8-0.7-1.4-1-2.1-1c-1,0-2,0.9-2,3.1c0,2.7,1.9,3.6,2.9,3.6c0.9,0,1.5-0.2,2.3-0.9L35.8,11.9"/>
					<path id="Fill-4" class="st0" d="M42.2,13.9v-0.6c1-0.1,1.1-0.2,1.1-1.6V8.2c0-1.4-0.6-2.1-1.6-2.1c-0.6,0-1.2,0.3-1.8,0.8v4.9
						c0,1.3,0.1,1.4,1.1,1.5v0.6h-4.7v-0.6c1.3-0.2,1.4-0.2,1.4-1.6V7.5c0-1.2-0.1-1.3-1.1-1.5V5.4C37.6,5.2,38.9,5,40,4.6v1.5
						c0.4-0.3,0.8-0.6,1.3-0.9c0.6-0.4,1-0.6,1.6-0.6c1.6,0,2.7,1.2,2.7,3.2v3.9c0,1.3,0.1,1.4,1.2,1.5v0.6H42.2"/>
					<path id="Fill-5" class="st0" d="M50.2,8.9c0,2.5,0.9,4.5,2.4,4.5c1,0,1.9-0.7,1.9-3.6c0-2.6-0.8-4.4-2.3-4.4
						C51.1,5.4,50.2,6.5,50.2,8.9L50.2,8.9z M56.9,9.2c0,3.3-2.4,4.9-4.6,4.9c-3.1,0-4.7-2.3-4.7-4.5c0-3.3,2.6-4.9,4.8-4.9
						C55.1,4.7,56.9,6.8,56.9,9.2L56.9,9.2z"/>
					<path id="Fill-6" class="st0" d="M57.5,13.9v-0.6c1.2-0.2,1.4-0.3,1.4-1.6V2.2c0-1.3-0.1-1.3-1.3-1.5V0.2
						c1.1-0.1,2.6-0.4,3.6-0.7v12.2c0,1.4,0.1,1.5,1.4,1.6v0.6H57.5"/>
					<path id="Fill-7" class="st0" d="M67.3,3.6c0.3-0.9,1-2.9,1.1-3.3c0.2-0.1,1.7-0.3,2-0.2l0.1,0.2l-2.7,3.6L67.3,3.6L67.3,3.6z
						 M65.9,8.9c0,2.5,0.9,4.5,2.4,4.5c1,0,1.9-0.7,1.9-3.6c0-2.6-0.8-4.4-2.3-4.4C66.8,5.4,65.9,6.5,65.9,8.9L65.9,8.9z M72.6,9.2
						c0,3.3-2.4,4.9-4.6,4.9c-3.1,0-4.7-2.3-4.7-4.5c0-3.3,2.6-4.9,4.8-4.9C70.8,4.7,72.6,6.8,72.6,9.2L72.6,9.2z"/>
					<path id="Fill-8" class="st0" d="M76.4,7.7c0,1.5,0.6,2.6,1.6,2.6c0.8,0,1.4-0.8,1.4-2.4c0-1.4-0.6-2.6-1.6-2.6
						C77.1,5.4,76.4,6.2,76.4,7.7L76.4,7.7z M76.3,14.6c-0.4,0.3-0.6,0.8-0.6,1.2c0,1,1.1,2,2.7,2c1.7,0,2.6-0.9,2.6-2
						c0-0.7-0.5-1.2-1.1-1.4c-0.5-0.2-1-0.2-1.8-0.2C77.1,14.2,76.6,14.3,76.3,14.6L76.3,14.6z M83.1,5.1c-0.1,0.3-0.5,1-0.9,1.2
						L81,6.2c0.3,0.4,0.6,1,0.6,1.6c0,2.2-1.9,3.2-3.8,3.2c-0.3,0-0.7-0.1-1-0.1c-0.2,0.2-0.4,0.4-0.4,0.7c0,0.3,0.3,0.8,1.3,0.8
						c0.7,0,1.3,0,2,0c1.3,0,3.1,0.4,3.1,2.4c0,2.3-2.6,4.2-5.3,4.2c-2.5,0-3.7-1.3-3.7-2.5c0-0.5,0.2-0.8,0.6-1.1
						c0.5-0.4,1.1-0.8,1.6-1.2c-0.8-0.3-1.2-0.7-1.5-1.1c-0.2-0.3-0.3-0.8-0.3-1c1-0.4,1.6-0.9,2-1.3c-1.1-0.4-1.9-1.4-1.9-2.7
						c0-2.3,2.1-3.4,3.8-3.4h0c0.8,0,1.4,0.2,2.1,0.5c1,0,2.1-0.2,2.9-0.3L83.1,5.1L83.1,5.1z"/>
					<path id="Fill-9" class="st0" d="M84.5,1.9c0-0.7,0.6-1.3,1.3-1.3c0.7,0,1.3,0.6,1.3,1.3c0,0.7-0.6,1.3-1.3,1.3
						C85.1,3.2,84.5,2.6,84.5,1.9L84.5,1.9z M83.5,13.9v-0.6c1.2-0.1,1.4-0.2,1.4-1.6V7.5c0-1.3-0.1-1.4-1.2-1.5V5.4
						C84.8,5.2,86,5,87.1,4.6v7c0,1.4,0.1,1.5,1.4,1.6v0.6H83.5L83.5,13.9z"/>
					<path id="Fill-10" class="st0" d="M97,11.9c-0.9,1.3-2.3,2.2-3.5,2.2c-2.7,0-4.3-2.1-4.3-4.3c0-1.5,0.7-2.9,2.1-3.9
						c1.2-0.9,2.5-1.2,3.3-1.2h0c0.8,0,1.4,0.2,1.8,0.5c0.3,0.2,0.4,0.4,0.4,0.7c0,0.5-0.5,1-0.8,1c-0.1,0-0.2-0.1-0.4-0.2
						c-0.8-0.7-1.4-1-2.1-1c-1,0-2,0.9-2,3.1c0,2.7,1.9,3.6,2.9,3.6c0.9,0,1.5-0.2,2.3-0.9L97,11.9"/>
					<path id="Fill-11" class="st0" d="M100.2,8.9c0,2.5,0.9,4.5,2.4,4.5c1,0,1.9-0.7,1.9-3.6c0-2.6-0.8-4.4-2.3-4.4
						C101.1,5.4,100.2,6.5,100.2,8.9L100.2,8.9z M107,9.2c0,3.3-2.4,4.9-4.6,4.9c-3.1,0-4.7-2.3-4.7-4.5c0-3.3,2.6-4.9,4.8-4.9
						C105.1,4.7,107,6.8,107,9.2L107,9.2z"/>
					<path id="Fill-12" class="st0" d="M15.9,24.8c-0.4-0.7-1-1-1.7-1c-0.7,0-2.3,0.6-2.3,3.7c0,2.5,1.5,3.5,2.6,3.5
						c0.5,0,1-0.2,1.4-0.5V24.8L15.9,24.8z M19.6,31.6c-0.5,0.1-2.3,0.3-3.7,0.8v-1.2L14.6,32c-0.6,0.4-1,0.4-1.2,0.4
						c-1.7,0-4.1-1.4-4.1-4.4c0-2.8,2.5-5,5.5-5c0.2,0,0.6,0,1,0.1v-2.6c0-1.2-0.1-1.3-1.5-1.4v-0.6c1.2-0.1,2.8-0.4,3.7-0.7v11.9
						c0,1.1,0.1,1.2,0.9,1.3l0.5,0.1V31.6L19.6,31.6z"/>
					<path id="Fill-13" class="st0" d="M22.7,26.3c0.9,0,1.8,0,2.8-0.1c0.3,0,0.5-0.1,0.5-0.4c0-1-0.5-2.1-1.5-2.1
						C23.7,23.7,22.9,24.7,22.7,26.3L22.7,26.3z M28.1,30.3c-1.2,1.7-2.8,2.1-3.6,2.1c-2.6,0-4.1-2-4.1-4.4c0-1.5,0.6-2.8,1.5-3.6
						c0.9-0.9,2-1.5,3.1-1.5h0c1.8,0,3.2,1.6,3.2,3.2c0,0.4-0.1,0.6-0.6,0.7c-0.3,0-2.9,0.2-5,0.3c0.1,2.4,1.4,3.5,2.9,3.5
						c0.8,0,1.6-0.3,2.3-0.9L28.1,30.3L28.1,30.3z"/>
					<path id="Fill-14" class="st0" d="M45,32.2v-0.7c1.6-0.2,1.7-0.3,1.7-2.3l0-8h-0.1L41.8,32h-0.5L37,21.4h-0.1l-0.3,5.5
						c-0.1,1.7-0.1,2.6,0,3.3c0.1,0.9,0.5,1.1,1.9,1.2v0.7h-4.9v-0.7c1.2-0.1,1.6-0.4,1.7-1.2c0.1-0.7,0.3-1.7,0.4-3.8l0.3-4.1
						c0.2-2.4,0-2.7-1.7-2.8v-0.7h3.9l4.2,9.4l4.3-9.4h3.9v0.7c-1.7,0.2-1.8,0.3-1.7,2.1l0.2,7.5c0.1,2,0.1,2.1,1.8,2.3v0.7H45"/>
					<path id="Fill-15" class="st0" d="M54,27.2c0,2.5,0.9,4.5,2.4,4.5c1,0,1.9-0.7,1.9-3.6c0-2.6-0.8-4.4-2.3-4.4
						C54.9,23.7,54,24.8,54,27.2L54,27.2z M60.8,27.5c0,3.3-2.4,4.9-4.6,4.9c-3.1,0-4.7-2.3-4.7-4.5c0-3.3,2.6-4.9,4.8-4.9
						C58.9,23,60.8,25,60.8,27.5L60.8,27.5z"/>
					<path id="Fill-16" class="st0" d="M67.3,32.2v-0.6c1-0.1,1.1-0.2,1.1-1.6v-3.4c0-1.4-0.6-2.1-1.6-2.1c-0.6,0-1.2,0.3-1.8,0.8
						V30c0,1.3,0.1,1.4,1.1,1.5v0.6h-4.7v-0.6c1.3-0.2,1.4-0.2,1.4-1.6v-4.2c0-1.2-0.1-1.3-1.1-1.5v-0.5c1.1-0.2,2.3-0.4,3.4-0.8
						v1.5c0.4-0.3,0.8-0.6,1.3-0.9c0.6-0.4,1-0.6,1.6-0.6c1.6,0,2.7,1.2,2.7,3.2V30c0,1.3,0.1,1.4,1.2,1.5v0.6H67.3"/>
					<path id="Fill-17" class="st0" d="M76.5,32.2c-0.4,0.2-0.7,0.2-0.8,0.2c-1.5,0-2.3-0.8-2.3-2.5v-5.8H72l-0.1-0.2l0.6-0.7h0.9
						v-1.5l2-1.5l0.3,0.1v2.9h2.1c0.2,0.2,0.2,0.8-0.1,0.9h-2v5.1c0,1.6,0.7,1.8,1.2,1.8c0.4,0,0.8-0.1,1.1-0.3l0.2,0.6L76.5,32.2"
						/>
					<path id="Fill-18" class="st0" d="M80.8,26.3c0.9,0,1.8,0,2.8-0.1c0.3,0,0.4-0.1,0.4-0.4c0-1-0.5-2.1-1.5-2.1
						C81.8,23.7,81,24.7,80.8,26.3L80.8,26.3z M86.2,30.3c-1.2,1.7-2.8,2.1-3.6,2.1c-2.6,0-4.1-2-4.1-4.4c0-1.5,0.6-2.8,1.5-3.6
						c0.9-0.9,2-1.5,3.1-1.5h0c1.8,0,3.2,1.6,3.2,3.2c0,0.4-0.1,0.6-0.6,0.7c-0.3,0-2.9,0.2-5,0.3c0.1,2.4,1.4,3.5,2.9,3.5
						c0.8,0,1.6-0.3,2.3-0.9L86.2,30.3L86.2,30.3z"/>
					<path id="Fill-19" class="st0" d="M90.6,25.1c0.7-1.2,1.5-2.2,2.4-2.2c0.8,0,1.3,0.6,1.3,1.2c0,0.6-0.4,1.1-0.9,1.3
						c-0.3,0.1-0.5,0.1-0.6-0.1c-0.3-0.3-0.6-0.4-0.9-0.4c-0.5,0-0.9,0.4-1.3,1.3V30c0,1.3,0.1,1.4,1.7,1.5v0.6h-5.3v-0.6
						c1.2-0.1,1.4-0.2,1.4-1.5v-4.4c0-1.2-0.1-1.2-1.2-1.4v-0.5c1.1-0.1,2.3-0.4,3.4-0.8L90.6,25.1L90.6,25.1"/>
					<path id="Fill-20" class="st0" d="M98.6,25.1c0.7-1.2,1.5-2.2,2.4-2.2c0.8,0,1.3,0.6,1.3,1.2c0,0.6-0.4,1.1-0.9,1.3
						c-0.3,0.1-0.5,0.1-0.6-0.1c-0.3-0.3-0.6-0.4-0.9-0.4c-0.5,0-0.9,0.4-1.3,1.3V30c0,1.3,0.1,1.4,1.7,1.5v0.6H95v-0.6
						c1.2-0.1,1.4-0.2,1.4-1.5v-4.4c0-1.2-0.1-1.2-1.2-1.4v-0.5c1.1-0.1,2.3-0.4,3.4-0.8L98.6,25.1L98.6,25.1"/>
					<path id="Fill-21" class="st0" d="M104.9,26.3c0.9,0,1.8,0,2.8-0.1c0.3,0,0.5-0.1,0.5-0.4c0-1-0.5-2.1-1.5-2.1
						C105.8,23.7,105.1,24.7,104.9,26.3L104.9,26.3z M110.3,30.3c-1.2,1.7-2.8,2.1-3.6,2.1c-2.6,0-4.1-2-4.1-4.4
						c0-1.5,0.6-2.8,1.5-3.6c0.9-0.9,2-1.5,3.1-1.5h0c1.8,0,3.2,1.6,3.2,3.2c0,0.4-0.1,0.6-0.6,0.7c-0.3,0-2.9,0.2-5,0.3
						c0.1,2.4,1.4,3.5,2.9,3.5c0.8,0,1.6-0.3,2.3-0.9L110.3,30.3L110.3,30.3z"/>
					<path id="Fill-23" class="st0" d="M120.5,23.8c-1,0.2-1.2,0.4-1.7,1.5c-0.5,1.1-1.2,2.8-2.5,5.8c-1.4,3.3-1.8,4.5-2.1,5.6
						c-0.1,0.4-0.4,0.5-0.7,0.5c-0.6,0-1.3-0.5-1.3-1.2c0-0.3,0.1-0.5,0.5-0.8c0.8-0.4,1.2-0.9,1.6-1.6c0.3-0.5,0.4-0.8,0.5-1
						c0.1-0.3,0.1-0.6-0.1-1c-1-2.7-2-5.5-2.5-6.6c-0.4-1-0.6-1.2-1.6-1.4v-0.6h4.7v0.6c-0.9,0.2-1,0.3-0.8,1l1.7,4.7
						c0.5-1.2,1.3-3.4,1.7-4.6c0.2-0.7,0.1-1-1-1.1v-0.6h3.7V23.8"/>
					<path id="Fill-25" class="st0" d="M9,0.4C9,1.6,8.9,2.7,8.8,3.9h0.7c0.2-1,0.5-1.7,0.8-2c0.3-0.4,0.7-0.6,2.3-0.6h0.9v9.9
						c0,1.7-0.2,1.9-1.9,2v0.7h6.3v-0.7c-1.8-0.1-2-0.3-2-2V1.3H17c1.3,0,1.8,0.1,2.1,0.5c0.3,0.4,0.5,1,0.8,2l0.7,0
						c-0.1-1.1-0.2-2.3-0.2-3.4H9"/>
				</g>
			</g>
		</g>
	</g>
</g>
</svg>
